<?xml version="1.0" encoding="utf-8" standalone="no"?>
<!DOCTYPE svg PUBLIC "-//W3C//DTD SVG 1.1//EN"
  "http://www.w3.org/Graphics/SVG/1.1/DTD/svg11.dtd">
<svg xmlns:xlink="http://www.w3.org/1999/xlink" width="380.378125pt" height="348.304262pt" viewBox="0 0 380.378125 348.304262" xmlns="http://www.w3.org/2000/svg" version="1.1">
 <metadata>
  <rdf:RDF xmlns:dc="http://purl.org/dc/elements/1.1/" xmlns:cc="http://creativecommons.org/ns#" xmlns:rdf="http://www.w3.org/1999/02/22-rdf-syntax-ns#">
   <cc:Work>
    <dc:type rdf:resource="http://purl.org/dc/dcmitype/StillImage"/>
    <dc:date>2024-08-09T20:13:02.537342</dc:date>
    <dc:format>image/svg+xml</dc:format>
    <dc:creator>
     <cc:Agent>
      <dc:title>Matplotlib v3.9.1, https://matplotlib.org/</dc:title>
     </cc:Agent>
    </dc:creator>
   </cc:Work>
  </rdf:RDF>
 </metadata>
 <defs>
  <style type="text/css">*{stroke-linejoin: round; stroke-linecap: butt}</style>
 </defs>
 <g id="figure_1">
  <g id="patch_1">
   <path d="M 0 348.304262 
L 380.378125 348.304262 
L 380.378125 0 
L 0 0 
z
" style="fill: #ffffff"/>
  </g>
  <g id="axes_1">
   <g id="patch_2">
    <path d="M 69.978125 144.228012 
L 373.178125 144.228012 
L 373.178125 7.788012 
L 69.978125 7.788012 
z
" style="fill: #ffffff"/>
   </g>
   <g id="matplotlib.axis_1">
    <g id="xtick_1">
     <g id="line2d_1">
      <defs>
       <path id="m3d21a4115e" d="M 0 0 
L 0 3.5 
" style="stroke: #000000; stroke-width: 0.8"/>
      </defs>
      <g>
       <use xlink:href="#m3d21a4115e" x="80.975737" y="144.228012" style="stroke: #000000; stroke-width: 0.8"/>
      </g>
     </g>
    </g>
    <g id="xtick_2">
     <g id="line2d_2">
      <g>
       <use xlink:href="#m3d21a4115e" x="136.659851" y="144.228012" style="stroke: #000000; stroke-width: 0.8"/>
      </g>
     </g>
    </g>
    <g id="xtick_3">
     <g id="line2d_3">
      <g>
       <use xlink:href="#m3d21a4115e" x="192.343965" y="144.228012" style="stroke: #000000; stroke-width: 0.8"/>
      </g>
     </g>
    </g>
    <g id="xtick_4">
     <g id="line2d_4">
      <g>
       <use xlink:href="#m3d21a4115e" x="248.028079" y="144.228012" style="stroke: #000000; stroke-width: 0.8"/>
      </g>
     </g>
    </g>
    <g id="xtick_5">
     <g id="line2d_5">
      <g>
       <use xlink:href="#m3d21a4115e" x="303.712193" y="144.228012" style="stroke: #000000; stroke-width: 0.8"/>
      </g>
     </g>
    </g>
    <g id="xtick_6">
     <g id="line2d_6">
      <g>
       <use xlink:href="#m3d21a4115e" x="359.396307" y="144.228012" style="stroke: #000000; stroke-width: 0.8"/>
      </g>
     </g>
    </g>
   </g>
   <g id="matplotlib.axis_2">
    <g id="ytick_1">
     <g id="line2d_7">
      <defs>
       <path id="mb1dc1ee28c" d="M 0 0 
L -3.5 0 
" style="stroke: #000000; stroke-width: 0.8"/>
      </defs>
      <g>
       <use xlink:href="#mb1dc1ee28c" x="69.978125" y="144.228012" style="stroke: #000000; stroke-width: 0.8"/>
      </g>
     </g>
     <g id="text_1">
      <!-- $3 \times 10^{-2}$ -->
      <g transform="translate(20.878125 148.027231) scale(0.1 -0.1)">
       <defs>
        <path id="DejaVuSans-33" d="M 2597 2516 
Q 3050 2419 3304 2112 
Q 3559 1806 3559 1356 
Q 3559 666 3084 287 
Q 2609 -91 1734 -91 
Q 1441 -91 1130 -33 
Q 819 25 488 141 
L 488 750 
Q 750 597 1062 519 
Q 1375 441 1716 441 
Q 2309 441 2620 675 
Q 2931 909 2931 1356 
Q 2931 1769 2642 2001 
Q 2353 2234 1838 2234 
L 1294 2234 
L 1294 2753 
L 1863 2753 
Q 2328 2753 2575 2939 
Q 2822 3125 2822 3475 
Q 2822 3834 2567 4026 
Q 2313 4219 1838 4219 
Q 1578 4219 1281 4162 
Q 984 4106 628 3988 
L 628 4550 
Q 988 4650 1302 4700 
Q 1616 4750 1894 4750 
Q 2613 4750 3031 4423 
Q 3450 4097 3450 3541 
Q 3450 3153 3228 2886 
Q 3006 2619 2597 2516 
z
" transform="scale(0.015625)"/>
        <path id="DejaVuSans-d7" d="M 4488 3438 
L 3059 2003 
L 4488 575 
L 4116 197 
L 2681 1631 
L 1247 197 
L 878 575 
L 2303 2003 
L 878 3438 
L 1247 3816 
L 2681 2381 
L 4116 3816 
L 4488 3438 
z
" transform="scale(0.015625)"/>
        <path id="DejaVuSans-31" d="M 794 531 
L 1825 531 
L 1825 4091 
L 703 3866 
L 703 4441 
L 1819 4666 
L 2450 4666 
L 2450 531 
L 3481 531 
L 3481 0 
L 794 0 
L 794 531 
z
" transform="scale(0.015625)"/>
        <path id="DejaVuSans-30" d="M 2034 4250 
Q 1547 4250 1301 3770 
Q 1056 3291 1056 2328 
Q 1056 1369 1301 889 
Q 1547 409 2034 409 
Q 2525 409 2770 889 
Q 3016 1369 3016 2328 
Q 3016 3291 2770 3770 
Q 2525 4250 2034 4250 
z
M 2034 4750 
Q 2819 4750 3233 4129 
Q 3647 3509 3647 2328 
Q 3647 1150 3233 529 
Q 2819 -91 2034 -91 
Q 1250 -91 836 529 
Q 422 1150 422 2328 
Q 422 3509 836 4129 
Q 1250 4750 2034 4750 
z
" transform="scale(0.015625)"/>
        <path id="DejaVuSans-2212" d="M 678 2272 
L 4684 2272 
L 4684 1741 
L 678 1741 
L 678 2272 
z
" transform="scale(0.015625)"/>
        <path id="DejaVuSans-32" d="M 1228 531 
L 3431 531 
L 3431 0 
L 469 0 
L 469 531 
Q 828 903 1448 1529 
Q 2069 2156 2228 2338 
Q 2531 2678 2651 2914 
Q 2772 3150 2772 3378 
Q 2772 3750 2511 3984 
Q 2250 4219 1831 4219 
Q 1534 4219 1204 4116 
Q 875 4013 500 3803 
L 500 4441 
Q 881 4594 1212 4672 
Q 1544 4750 1819 4750 
Q 2544 4750 2975 4387 
Q 3406 4025 3406 3419 
Q 3406 3131 3298 2873 
Q 3191 2616 2906 2266 
Q 2828 2175 2409 1742 
Q 1991 1309 1228 531 
z
" transform="scale(0.015625)"/>
       </defs>
       <use xlink:href="#DejaVuSans-33" transform="translate(0 0.765625)"/>
       <use xlink:href="#DejaVuSans-d7" transform="translate(83.105469 0.765625)"/>
       <use xlink:href="#DejaVuSans-31" transform="translate(186.376953 0.765625)"/>
       <use xlink:href="#DejaVuSans-30" transform="translate(250 0.765625)"/>
       <use xlink:href="#DejaVuSans-2212" transform="translate(314.580078 39.046875) scale(0.7)"/>
       <use xlink:href="#DejaVuSans-32" transform="translate(373.232422 39.046875) scale(0.7)"/>
      </g>
     </g>
    </g>
    <g id="ytick_2">
     <g id="line2d_8">
      <g>
       <use xlink:href="#mb1dc1ee28c" x="69.978125" y="82.302414" style="stroke: #000000; stroke-width: 0.8"/>
      </g>
     </g>
     <g id="text_2">
      <!-- $10^{-1}$ -->
      <g transform="translate(39.478125 86.101632) scale(0.1 -0.1)">
       <use xlink:href="#DejaVuSans-31" transform="translate(0 0.684375)"/>
       <use xlink:href="#DejaVuSans-30" transform="translate(63.623047 0.684375)"/>
       <use xlink:href="#DejaVuSans-2212" transform="translate(128.203125 38.965625) scale(0.7)"/>
       <use xlink:href="#DejaVuSans-31" transform="translate(186.855469 38.965625) scale(0.7)"/>
      </g>
     </g>
    </g>
    <g id="ytick_3">
     <g id="line2d_9">
      <g>
       <use xlink:href="#mb1dc1ee28c" x="69.978125" y="10.999219" style="stroke: #000000; stroke-width: 0.8"/>
      </g>
     </g>
     <g id="text_3">
      <!-- $4 \times 10^{-1}$ -->
      <g transform="translate(20.878125 14.798437) scale(0.1 -0.1)">
       <defs>
        <path id="DejaVuSans-34" d="M 2419 4116 
L 825 1625 
L 2419 1625 
L 2419 4116 
z
M 2253 4666 
L 3047 4666 
L 3047 1625 
L 3713 1625 
L 3713 1100 
L 3047 1100 
L 3047 0 
L 2419 0 
L 2419 1100 
L 313 1100 
L 313 1709 
L 2253 4666 
z
" transform="scale(0.015625)"/>
       </defs>
       <use xlink:href="#DejaVuSans-34" transform="translate(0 0.684375)"/>
       <use xlink:href="#DejaVuSans-d7" transform="translate(83.105469 0.684375)"/>
       <use xlink:href="#DejaVuSans-31" transform="translate(186.376953 0.684375)"/>
       <use xlink:href="#DejaVuSans-30" transform="translate(250 0.684375)"/>
       <use xlink:href="#DejaVuSans-2212" transform="translate(314.580078 38.965625) scale(0.7)"/>
       <use xlink:href="#DejaVuSans-31" transform="translate(373.232422 38.965625) scale(0.7)"/>
      </g>
     </g>
    </g>
    <g id="ytick_4">
     <g id="line2d_10">
      <defs>
       <path id="m846426307e" d="M 0 0 
L -2 0 
" style="stroke: #000000; stroke-width: 0.6"/>
      </defs>
      <g>
       <use xlink:href="#m846426307e" x="69.978125" y="129.431262" style="stroke: #000000; stroke-width: 0.6"/>
      </g>
     </g>
    </g>
    <g id="ytick_5">
     <g id="line2d_11">
      <g>
       <use xlink:href="#m846426307e" x="69.978125" y="117.954011" style="stroke: #000000; stroke-width: 0.6"/>
      </g>
     </g>
    </g>
    <g id="ytick_6">
     <g id="line2d_12">
      <g>
       <use xlink:href="#m846426307e" x="69.978125" y="108.576414" style="stroke: #000000; stroke-width: 0.6"/>
      </g>
     </g>
    </g>
    <g id="ytick_7">
     <g id="line2d_13">
      <g>
       <use xlink:href="#m846426307e" x="69.978125" y="100.647769" style="stroke: #000000; stroke-width: 0.6"/>
      </g>
     </g>
    </g>
    <g id="ytick_8">
     <g id="line2d_14">
      <g>
       <use xlink:href="#m846426307e" x="69.978125" y="93.779665" style="stroke: #000000; stroke-width: 0.6"/>
      </g>
     </g>
    </g>
    <g id="ytick_9">
     <g id="line2d_15">
      <g>
       <use xlink:href="#m846426307e" x="69.978125" y="87.721567" style="stroke: #000000; stroke-width: 0.6"/>
      </g>
     </g>
    </g>
    <g id="ytick_10">
     <g id="line2d_16">
      <g>
       <use xlink:href="#m846426307e" x="69.978125" y="46.650816" style="stroke: #000000; stroke-width: 0.6"/>
      </g>
     </g>
    </g>
    <g id="ytick_11">
     <g id="line2d_17">
      <g>
       <use xlink:href="#m846426307e" x="69.978125" y="25.795969" style="stroke: #000000; stroke-width: 0.6"/>
      </g>
     </g>
    </g>
    <g id="text_4">
     <!-- Suboptimality gap -->
     <g transform="translate(14.798438 121.741606) rotate(-90) scale(0.1 -0.1)">
      <defs>
       <path id="DejaVuSans-53" d="M 3425 4513 
L 3425 3897 
Q 3066 4069 2747 4153 
Q 2428 4238 2131 4238 
Q 1616 4238 1336 4038 
Q 1056 3838 1056 3469 
Q 1056 3159 1242 3001 
Q 1428 2844 1947 2747 
L 2328 2669 
Q 3034 2534 3370 2195 
Q 3706 1856 3706 1288 
Q 3706 609 3251 259 
Q 2797 -91 1919 -91 
Q 1588 -91 1214 -16 
Q 841 59 441 206 
L 441 856 
Q 825 641 1194 531 
Q 1563 422 1919 422 
Q 2459 422 2753 634 
Q 3047 847 3047 1241 
Q 3047 1584 2836 1778 
Q 2625 1972 2144 2069 
L 1759 2144 
Q 1053 2284 737 2584 
Q 422 2884 422 3419 
Q 422 4038 858 4394 
Q 1294 4750 2059 4750 
Q 2388 4750 2728 4690 
Q 3069 4631 3425 4513 
z
" transform="scale(0.015625)"/>
       <path id="DejaVuSans-75" d="M 544 1381 
L 544 3500 
L 1119 3500 
L 1119 1403 
Q 1119 906 1312 657 
Q 1506 409 1894 409 
Q 2359 409 2629 706 
Q 2900 1003 2900 1516 
L 2900 3500 
L 3475 3500 
L 3475 0 
L 2900 0 
L 2900 538 
Q 2691 219 2414 64 
Q 2138 -91 1772 -91 
Q 1169 -91 856 284 
Q 544 659 544 1381 
z
M 1991 3584 
L 1991 3584 
z
" transform="scale(0.015625)"/>
       <path id="DejaVuSans-62" d="M 3116 1747 
Q 3116 2381 2855 2742 
Q 2594 3103 2138 3103 
Q 1681 3103 1420 2742 
Q 1159 2381 1159 1747 
Q 1159 1113 1420 752 
Q 1681 391 2138 391 
Q 2594 391 2855 752 
Q 3116 1113 3116 1747 
z
M 1159 2969 
Q 1341 3281 1617 3432 
Q 1894 3584 2278 3584 
Q 2916 3584 3314 3078 
Q 3713 2572 3713 1747 
Q 3713 922 3314 415 
Q 2916 -91 2278 -91 
Q 1894 -91 1617 61 
Q 1341 213 1159 525 
L 1159 0 
L 581 0 
L 581 4863 
L 1159 4863 
L 1159 2969 
z
" transform="scale(0.015625)"/>
       <path id="DejaVuSans-6f" d="M 1959 3097 
Q 1497 3097 1228 2736 
Q 959 2375 959 1747 
Q 959 1119 1226 758 
Q 1494 397 1959 397 
Q 2419 397 2687 759 
Q 2956 1122 2956 1747 
Q 2956 2369 2687 2733 
Q 2419 3097 1959 3097 
z
M 1959 3584 
Q 2709 3584 3137 3096 
Q 3566 2609 3566 1747 
Q 3566 888 3137 398 
Q 2709 -91 1959 -91 
Q 1206 -91 779 398 
Q 353 888 353 1747 
Q 353 2609 779 3096 
Q 1206 3584 1959 3584 
z
" transform="scale(0.015625)"/>
       <path id="DejaVuSans-70" d="M 1159 525 
L 1159 -1331 
L 581 -1331 
L 581 3500 
L 1159 3500 
L 1159 2969 
Q 1341 3281 1617 3432 
Q 1894 3584 2278 3584 
Q 2916 3584 3314 3078 
Q 3713 2572 3713 1747 
Q 3713 922 3314 415 
Q 2916 -91 2278 -91 
Q 1894 -91 1617 61 
Q 1341 213 1159 525 
z
M 3116 1747 
Q 3116 2381 2855 2742 
Q 2594 3103 2138 3103 
Q 1681 3103 1420 2742 
Q 1159 2381 1159 1747 
Q 1159 1113 1420 752 
Q 1681 391 2138 391 
Q 2594 391 2855 752 
Q 3116 1113 3116 1747 
z
" transform="scale(0.015625)"/>
       <path id="DejaVuSans-74" d="M 1172 4494 
L 1172 3500 
L 2356 3500 
L 2356 3053 
L 1172 3053 
L 1172 1153 
Q 1172 725 1289 603 
Q 1406 481 1766 481 
L 2356 481 
L 2356 0 
L 1766 0 
Q 1100 0 847 248 
Q 594 497 594 1153 
L 594 3053 
L 172 3053 
L 172 3500 
L 594 3500 
L 594 4494 
L 1172 4494 
z
" transform="scale(0.015625)"/>
       <path id="DejaVuSans-69" d="M 603 3500 
L 1178 3500 
L 1178 0 
L 603 0 
L 603 3500 
z
M 603 4863 
L 1178 4863 
L 1178 4134 
L 603 4134 
L 603 4863 
z
" transform="scale(0.015625)"/>
       <path id="DejaVuSans-6d" d="M 3328 2828 
Q 3544 3216 3844 3400 
Q 4144 3584 4550 3584 
Q 5097 3584 5394 3201 
Q 5691 2819 5691 2113 
L 5691 0 
L 5113 0 
L 5113 2094 
Q 5113 2597 4934 2840 
Q 4756 3084 4391 3084 
Q 3944 3084 3684 2787 
Q 3425 2491 3425 1978 
L 3425 0 
L 2847 0 
L 2847 2094 
Q 2847 2600 2669 2842 
Q 2491 3084 2119 3084 
Q 1678 3084 1418 2786 
Q 1159 2488 1159 1978 
L 1159 0 
L 581 0 
L 581 3500 
L 1159 3500 
L 1159 2956 
Q 1356 3278 1631 3431 
Q 1906 3584 2284 3584 
Q 2666 3584 2933 3390 
Q 3200 3197 3328 2828 
z
" transform="scale(0.015625)"/>
       <path id="DejaVuSans-61" d="M 2194 1759 
Q 1497 1759 1228 1600 
Q 959 1441 959 1056 
Q 959 750 1161 570 
Q 1363 391 1709 391 
Q 2188 391 2477 730 
Q 2766 1069 2766 1631 
L 2766 1759 
L 2194 1759 
z
M 3341 1997 
L 3341 0 
L 2766 0 
L 2766 531 
Q 2569 213 2275 61 
Q 1981 -91 1556 -91 
Q 1019 -91 701 211 
Q 384 513 384 1019 
Q 384 1609 779 1909 
Q 1175 2209 1959 2209 
L 2766 2209 
L 2766 2266 
Q 2766 2663 2505 2880 
Q 2244 3097 1772 3097 
Q 1472 3097 1187 3025 
Q 903 2953 641 2809 
L 641 3341 
Q 956 3463 1253 3523 
Q 1550 3584 1831 3584 
Q 2591 3584 2966 3190 
Q 3341 2797 3341 1997 
z
" transform="scale(0.015625)"/>
       <path id="DejaVuSans-6c" d="M 603 4863 
L 1178 4863 
L 1178 0 
L 603 0 
L 603 4863 
z
" transform="scale(0.015625)"/>
       <path id="DejaVuSans-79" d="M 2059 -325 
Q 1816 -950 1584 -1140 
Q 1353 -1331 966 -1331 
L 506 -1331 
L 506 -850 
L 844 -850 
Q 1081 -850 1212 -737 
Q 1344 -625 1503 -206 
L 1606 56 
L 191 3500 
L 800 3500 
L 1894 763 
L 2988 3500 
L 3597 3500 
L 2059 -325 
z
" transform="scale(0.015625)"/>
       <path id="DejaVuSans-20" transform="scale(0.015625)"/>
       <path id="DejaVuSans-67" d="M 2906 1791 
Q 2906 2416 2648 2759 
Q 2391 3103 1925 3103 
Q 1463 3103 1205 2759 
Q 947 2416 947 1791 
Q 947 1169 1205 825 
Q 1463 481 1925 481 
Q 2391 481 2648 825 
Q 2906 1169 2906 1791 
z
M 3481 434 
Q 3481 -459 3084 -895 
Q 2688 -1331 1869 -1331 
Q 1566 -1331 1297 -1286 
Q 1028 -1241 775 -1147 
L 775 -588 
Q 1028 -725 1275 -790 
Q 1522 -856 1778 -856 
Q 2344 -856 2625 -561 
Q 2906 -266 2906 331 
L 2906 616 
Q 2728 306 2450 153 
Q 2172 0 1784 0 
Q 1141 0 747 490 
Q 353 981 353 1791 
Q 353 2603 747 3093 
Q 1141 3584 1784 3584 
Q 2172 3584 2450 3431 
Q 2728 3278 2906 2969 
L 2906 3500 
L 3481 3500 
L 3481 434 
z
" transform="scale(0.015625)"/>
      </defs>
      <use xlink:href="#DejaVuSans-53"/>
      <use xlink:href="#DejaVuSans-75" x="63.476562"/>
      <use xlink:href="#DejaVuSans-62" x="126.855469"/>
      <use xlink:href="#DejaVuSans-6f" x="190.332031"/>
      <use xlink:href="#DejaVuSans-70" x="251.513672"/>
      <use xlink:href="#DejaVuSans-74" x="314.990234"/>
      <use xlink:href="#DejaVuSans-69" x="354.199219"/>
      <use xlink:href="#DejaVuSans-6d" x="381.982422"/>
      <use xlink:href="#DejaVuSans-61" x="479.394531"/>
      <use xlink:href="#DejaVuSans-6c" x="540.673828"/>
      <use xlink:href="#DejaVuSans-69" x="568.457031"/>
      <use xlink:href="#DejaVuSans-74" x="596.240234"/>
      <use xlink:href="#DejaVuSans-79" x="635.449219"/>
      <use xlink:href="#DejaVuSans-20" x="694.628906"/>
      <use xlink:href="#DejaVuSans-67" x="726.416016"/>
      <use xlink:href="#DejaVuSans-61" x="789.892578"/>
      <use xlink:href="#DejaVuSans-70" x="851.171875"/>
     </g>
    </g>
   </g>
   <g id="line2d_18">
    <path d="M 83.759943 13.664742 
L 86.544149 27.488234 
L 89.328355 36.377333 
L 92.11256 42.713105 
L 94.896766 47.624408 
L 97.680972 51.536606 
L 100.465177 55.070203 
L 103.249383 58.016018 
L 106.033589 60.675948 
L 108.817794 63.305302 
L 111.602 65.315129 
L 114.386206 67.362047 
L 117.170412 68.987394 
L 119.954617 70.625634 
L 122.738823 72.17052 
L 125.523029 73.72496 
L 128.307234 75.045719 
L 131.09144 76.296734 
L 133.875646 77.630583 
L 136.659851 78.948773 
L 139.444057 79.813398 
L 142.228263 80.725962 
L 145.012468 91.185334 
L 147.796674 93.615686 
L 150.58088 94.448812 
L 153.365086 93.772122 
L 156.149291 95.474173 
L 158.933497 96.549249 
L 161.717703 97.431377 
L 164.501908 98.168495 
L 167.286114 98.594713 
L 170.07032 100.561071 
L 172.854525 101.02423 
L 175.638731 98.405642 
L 178.422937 102.075908 
L 181.207142 100.873441 
L 183.991348 103.176243 
L 186.775554 103.67492 
L 189.55976 103.340015 
L 192.343965 113.972624 
L 195.128171 105.69294 
L 197.912377 105.452196 
L 200.696582 106.240128 
L 203.480788 107.018615 
L 206.264994 107.788292 
L 209.049199 109.664218 
L 211.833405 110.276189 
L 214.617611 110.836351 
L 217.401816 111.385694 
L 220.186022 111.934046 
L 222.970228 112.497798 
L 225.754434 113.035984 
L 228.538639 113.553786 
L 231.322845 114.098218 
L 234.107051 114.60995 
L 236.891256 115.143056 
L 239.675462 115.642279 
L 242.459668 116.130029 
L 245.243873 116.619111 
L 248.028079 117.127397 
L 250.812285 117.625271 
L 253.59649 118.11521 
L 256.380696 118.595904 
L 259.164902 119.07847 
L 261.949108 119.495785 
L 264.733313 117.897222 
L 267.517519 117.877306 
L 270.301725 117.787852 
L 273.08593 117.889467 
L 275.870136 118.351377 
L 278.654342 118.878442 
L 281.438547 119.365829 
L 284.222753 119.690155 
L 287.006959 120.163622 
L 289.791164 120.7222 
L 292.57537 121.220398 
L 295.359576 121.665327 
L 298.143782 122.114887 
L 300.927987 122.580123 
L 303.712193 123.056902 
L 306.496399 123.522851 
L 309.280604 123.995103 
L 312.06481 124.384989 
L 314.849016 124.893523 
L 317.633221 125.303602 
L 320.417427 125.780039 
L 323.201633 126.243288 
L 325.985838 126.667484 
L 328.770044 127.133628 
L 331.55425 127.611395 
L 334.338456 127.806616 
L 337.122661 128.140634 
L 339.906867 128.563616 
L 342.691073 128.916392 
L 345.475278 129.363871 
L 348.259484 129.740922 
L 351.04369 130.034743 
L 353.827895 130.421118 
L 356.612101 130.816884 
L 359.396307 131.199355 
" clip-path="url(#p9c73d197be)" style="fill: none; stroke: #1f77b4; stroke-width: 1.5; stroke-linecap: square"/>
   </g>
   <g id="patch_3">
    <path d="M 69.978125 144.228012 
L 69.978125 7.788012 
" style="fill: none; stroke: #000000; stroke-width: 0.8; stroke-linejoin: miter; stroke-linecap: square"/>
   </g>
   <g id="patch_4">
    <path d="M 373.178125 144.228012 
L 373.178125 7.788012 
" style="fill: none; stroke: #000000; stroke-width: 0.8; stroke-linejoin: miter; stroke-linecap: square"/>
   </g>
   <g id="patch_5">
    <path d="M 69.978125 144.228012 
L 373.178125 144.228012 
" style="fill: none; stroke: #000000; stroke-width: 0.8; stroke-linejoin: miter; stroke-linecap: square"/>
   </g>
   <g id="patch_6">
    <path d="M 69.978125 7.788012 
L 373.178125 7.788012 
" style="fill: none; stroke: #000000; stroke-width: 0.8; stroke-linejoin: miter; stroke-linecap: square"/>
   </g>
  </g>
  <g id="axes_2">
   <g id="patch_7">
    <path d="M 69.978125 310.748012 
L 373.178125 310.748012 
L 373.178125 174.308012 
L 69.978125 174.308012 
z
" style="fill: #ffffff"/>
   </g>
   <g id="matplotlib.axis_3">
    <g id="xtick_7">
     <g id="line2d_19">
      <g>
       <use xlink:href="#m3d21a4115e" x="80.975737" y="310.748012" style="stroke: #000000; stroke-width: 0.8"/>
      </g>
     </g>
     <g id="text_5">
      <!-- 0 -->
      <g transform="translate(77.794487 325.346449) scale(0.1 -0.1)">
       <use xlink:href="#DejaVuSans-30"/>
      </g>
     </g>
    </g>
    <g id="xtick_8">
     <g id="line2d_20">
      <g>
       <use xlink:href="#m3d21a4115e" x="136.659851" y="310.748012" style="stroke: #000000; stroke-width: 0.8"/>
      </g>
     </g>
     <g id="text_6">
      <!-- 100 -->
      <g transform="translate(127.116101 325.346449) scale(0.1 -0.1)">
       <use xlink:href="#DejaVuSans-31"/>
       <use xlink:href="#DejaVuSans-30" x="63.623047"/>
       <use xlink:href="#DejaVuSans-30" x="127.246094"/>
      </g>
     </g>
    </g>
    <g id="xtick_9">
     <g id="line2d_21">
      <g>
       <use xlink:href="#m3d21a4115e" x="192.343965" y="310.748012" style="stroke: #000000; stroke-width: 0.8"/>
      </g>
     </g>
     <g id="text_7">
      <!-- 200 -->
      <g transform="translate(182.800215 325.346449) scale(0.1 -0.1)">
       <use xlink:href="#DejaVuSans-32"/>
       <use xlink:href="#DejaVuSans-30" x="63.623047"/>
       <use xlink:href="#DejaVuSans-30" x="127.246094"/>
      </g>
     </g>
    </g>
    <g id="xtick_10">
     <g id="line2d_22">
      <g>
       <use xlink:href="#m3d21a4115e" x="248.028079" y="310.748012" style="stroke: #000000; stroke-width: 0.8"/>
      </g>
     </g>
     <g id="text_8">
      <!-- 300 -->
      <g transform="translate(238.484329 325.346449) scale(0.1 -0.1)">
       <use xlink:href="#DejaVuSans-33"/>
       <use xlink:href="#DejaVuSans-30" x="63.623047"/>
       <use xlink:href="#DejaVuSans-30" x="127.246094"/>
      </g>
     </g>
    </g>
    <g id="xtick_11">
     <g id="line2d_23">
      <g>
       <use xlink:href="#m3d21a4115e" x="303.712193" y="310.748012" style="stroke: #000000; stroke-width: 0.8"/>
      </g>
     </g>
     <g id="text_9">
      <!-- 400 -->
      <g transform="translate(294.168443 325.346449) scale(0.1 -0.1)">
       <use xlink:href="#DejaVuSans-34"/>
       <use xlink:href="#DejaVuSans-30" x="63.623047"/>
       <use xlink:href="#DejaVuSans-30" x="127.246094"/>
      </g>
     </g>
    </g>
    <g id="xtick_12">
     <g id="line2d_24">
      <g>
       <use xlink:href="#m3d21a4115e" x="359.396307" y="310.748012" style="stroke: #000000; stroke-width: 0.8"/>
      </g>
     </g>
     <g id="text_10">
      <!-- 500 -->
      <g transform="translate(349.852557 325.346449) scale(0.1 -0.1)">
       <defs>
        <path id="DejaVuSans-35" d="M 691 4666 
L 3169 4666 
L 3169 4134 
L 1269 4134 
L 1269 2991 
Q 1406 3038 1543 3061 
Q 1681 3084 1819 3084 
Q 2600 3084 3056 2656 
Q 3513 2228 3513 1497 
Q 3513 744 3044 326 
Q 2575 -91 1722 -91 
Q 1428 -91 1123 -41 
Q 819 9 494 109 
L 494 744 
Q 775 591 1075 516 
Q 1375 441 1709 441 
Q 2250 441 2565 725 
Q 2881 1009 2881 1497 
Q 2881 1984 2565 2268 
Q 2250 2553 1709 2553 
Q 1456 2553 1204 2497 
Q 953 2441 691 2322 
L 691 4666 
z
" transform="scale(0.015625)"/>
       </defs>
       <use xlink:href="#DejaVuSans-35"/>
       <use xlink:href="#DejaVuSans-30" x="63.623047"/>
       <use xlink:href="#DejaVuSans-30" x="127.246094"/>
      </g>
     </g>
    </g>
    <g id="text_11">
     <!-- Iterations -->
     <g transform="translate(197.764844 339.024574) scale(0.1 -0.1)">
      <defs>
       <path id="DejaVuSans-49" d="M 628 4666 
L 1259 4666 
L 1259 0 
L 628 0 
L 628 4666 
z
" transform="scale(0.015625)"/>
       <path id="DejaVuSans-65" d="M 3597 1894 
L 3597 1613 
L 953 1613 
Q 991 1019 1311 708 
Q 1631 397 2203 397 
Q 2534 397 2845 478 
Q 3156 559 3463 722 
L 3463 178 
Q 3153 47 2828 -22 
Q 2503 -91 2169 -91 
Q 1331 -91 842 396 
Q 353 884 353 1716 
Q 353 2575 817 3079 
Q 1281 3584 2069 3584 
Q 2775 3584 3186 3129 
Q 3597 2675 3597 1894 
z
M 3022 2063 
Q 3016 2534 2758 2815 
Q 2500 3097 2075 3097 
Q 1594 3097 1305 2825 
Q 1016 2553 972 2059 
L 3022 2063 
z
" transform="scale(0.015625)"/>
       <path id="DejaVuSans-72" d="M 2631 2963 
Q 2534 3019 2420 3045 
Q 2306 3072 2169 3072 
Q 1681 3072 1420 2755 
Q 1159 2438 1159 1844 
L 1159 0 
L 581 0 
L 581 3500 
L 1159 3500 
L 1159 2956 
Q 1341 3275 1631 3429 
Q 1922 3584 2338 3584 
Q 2397 3584 2469 3576 
Q 2541 3569 2628 3553 
L 2631 2963 
z
" transform="scale(0.015625)"/>
       <path id="DejaVuSans-6e" d="M 3513 2113 
L 3513 0 
L 2938 0 
L 2938 2094 
Q 2938 2591 2744 2837 
Q 2550 3084 2163 3084 
Q 1697 3084 1428 2787 
Q 1159 2491 1159 1978 
L 1159 0 
L 581 0 
L 581 3500 
L 1159 3500 
L 1159 2956 
Q 1366 3272 1645 3428 
Q 1925 3584 2291 3584 
Q 2894 3584 3203 3211 
Q 3513 2838 3513 2113 
z
" transform="scale(0.015625)"/>
       <path id="DejaVuSans-73" d="M 2834 3397 
L 2834 2853 
Q 2591 2978 2328 3040 
Q 2066 3103 1784 3103 
Q 1356 3103 1142 2972 
Q 928 2841 928 2578 
Q 928 2378 1081 2264 
Q 1234 2150 1697 2047 
L 1894 2003 
Q 2506 1872 2764 1633 
Q 3022 1394 3022 966 
Q 3022 478 2636 193 
Q 2250 -91 1575 -91 
Q 1294 -91 989 -36 
Q 684 19 347 128 
L 347 722 
Q 666 556 975 473 
Q 1284 391 1588 391 
Q 1994 391 2212 530 
Q 2431 669 2431 922 
Q 2431 1156 2273 1281 
Q 2116 1406 1581 1522 
L 1381 1569 
Q 847 1681 609 1914 
Q 372 2147 372 2553 
Q 372 3047 722 3315 
Q 1072 3584 1716 3584 
Q 2034 3584 2315 3537 
Q 2597 3491 2834 3397 
z
" transform="scale(0.015625)"/>
      </defs>
      <use xlink:href="#DejaVuSans-49"/>
      <use xlink:href="#DejaVuSans-74" x="29.492188"/>
      <use xlink:href="#DejaVuSans-65" x="68.701172"/>
      <use xlink:href="#DejaVuSans-72" x="130.224609"/>
      <use xlink:href="#DejaVuSans-61" x="171.337891"/>
      <use xlink:href="#DejaVuSans-74" x="232.617188"/>
      <use xlink:href="#DejaVuSans-69" x="271.826172"/>
      <use xlink:href="#DejaVuSans-6f" x="299.609375"/>
      <use xlink:href="#DejaVuSans-6e" x="360.791016"/>
      <use xlink:href="#DejaVuSans-73" x="424.169922"/>
     </g>
    </g>
   </g>
   <g id="matplotlib.axis_4">
    <g id="ytick_12">
     <g id="line2d_25">
      <g>
       <use xlink:href="#mb1dc1ee28c" x="69.978125" y="293.886902" style="stroke: #000000; stroke-width: 0.8"/>
      </g>
     </g>
     <g id="text_12">
      <!-- 0.025 -->
      <g transform="translate(34.35 297.686121) scale(0.1 -0.1)">
       <defs>
        <path id="DejaVuSans-2e" d="M 684 794 
L 1344 794 
L 1344 0 
L 684 0 
L 684 794 
z
" transform="scale(0.015625)"/>
       </defs>
       <use xlink:href="#DejaVuSans-30"/>
       <use xlink:href="#DejaVuSans-2e" x="63.623047"/>
       <use xlink:href="#DejaVuSans-30" x="95.410156"/>
       <use xlink:href="#DejaVuSans-32" x="159.033203"/>
       <use xlink:href="#DejaVuSans-35" x="222.65625"/>
      </g>
     </g>
    </g>
    <g id="ytick_13">
     <g id="line2d_26">
      <g>
       <use xlink:href="#mb1dc1ee28c" x="69.978125" y="267.588956" style="stroke: #000000; stroke-width: 0.8"/>
      </g>
     </g>
     <g id="text_13">
      <!-- 0.050 -->
      <g transform="translate(34.35 271.388174) scale(0.1 -0.1)">
       <use xlink:href="#DejaVuSans-30"/>
       <use xlink:href="#DejaVuSans-2e" x="63.623047"/>
       <use xlink:href="#DejaVuSans-30" x="95.410156"/>
       <use xlink:href="#DejaVuSans-35" x="159.033203"/>
       <use xlink:href="#DejaVuSans-30" x="222.65625"/>
      </g>
     </g>
    </g>
    <g id="ytick_14">
     <g id="line2d_27">
      <g>
       <use xlink:href="#mb1dc1ee28c" x="69.978125" y="241.291009" style="stroke: #000000; stroke-width: 0.8"/>
      </g>
     </g>
     <g id="text_14">
      <!-- 0.075 -->
      <g transform="translate(34.35 245.090228) scale(0.1 -0.1)">
       <defs>
        <path id="DejaVuSans-37" d="M 525 4666 
L 3525 4666 
L 3525 4397 
L 1831 0 
L 1172 0 
L 2766 4134 
L 525 4134 
L 525 4666 
z
" transform="scale(0.015625)"/>
       </defs>
       <use xlink:href="#DejaVuSans-30"/>
       <use xlink:href="#DejaVuSans-2e" x="63.623047"/>
       <use xlink:href="#DejaVuSans-30" x="95.410156"/>
       <use xlink:href="#DejaVuSans-37" x="159.033203"/>
       <use xlink:href="#DejaVuSans-35" x="222.65625"/>
      </g>
     </g>
    </g>
    <g id="ytick_15">
     <g id="line2d_28">
      <g>
       <use xlink:href="#mb1dc1ee28c" x="69.978125" y="214.993062" style="stroke: #000000; stroke-width: 0.8"/>
      </g>
     </g>
     <g id="text_15">
      <!-- 0.100 -->
      <g transform="translate(34.35 218.792281) scale(0.1 -0.1)">
       <use xlink:href="#DejaVuSans-30"/>
       <use xlink:href="#DejaVuSans-2e" x="63.623047"/>
       <use xlink:href="#DejaVuSans-31" x="95.410156"/>
       <use xlink:href="#DejaVuSans-30" x="159.033203"/>
       <use xlink:href="#DejaVuSans-30" x="222.65625"/>
      </g>
     </g>
    </g>
    <g id="ytick_16">
     <g id="line2d_29">
      <g>
       <use xlink:href="#mb1dc1ee28c" x="69.978125" y="188.695115" style="stroke: #000000; stroke-width: 0.8"/>
      </g>
     </g>
     <g id="text_16">
      <!-- 0.125 -->
      <g transform="translate(34.35 192.494334) scale(0.1 -0.1)">
       <use xlink:href="#DejaVuSans-30"/>
       <use xlink:href="#DejaVuSans-2e" x="63.623047"/>
       <use xlink:href="#DejaVuSans-31" x="95.410156"/>
       <use xlink:href="#DejaVuSans-32" x="159.033203"/>
       <use xlink:href="#DejaVuSans-35" x="222.65625"/>
      </g>
     </g>
    </g>
    <g id="text_17">
     <!-- Misclassification rate -->
     <g transform="translate(28.270313 294.921762) rotate(-90) scale(0.1 -0.1)">
      <defs>
       <path id="DejaVuSans-4d" d="M 628 4666 
L 1569 4666 
L 2759 1491 
L 3956 4666 
L 4897 4666 
L 4897 0 
L 4281 0 
L 4281 4097 
L 3078 897 
L 2444 897 
L 1241 4097 
L 1241 0 
L 628 0 
L 628 4666 
z
" transform="scale(0.015625)"/>
       <path id="DejaVuSans-63" d="M 3122 3366 
L 3122 2828 
Q 2878 2963 2633 3030 
Q 2388 3097 2138 3097 
Q 1578 3097 1268 2742 
Q 959 2388 959 1747 
Q 959 1106 1268 751 
Q 1578 397 2138 397 
Q 2388 397 2633 464 
Q 2878 531 3122 666 
L 3122 134 
Q 2881 22 2623 -34 
Q 2366 -91 2075 -91 
Q 1284 -91 818 406 
Q 353 903 353 1747 
Q 353 2603 823 3093 
Q 1294 3584 2113 3584 
Q 2378 3584 2631 3529 
Q 2884 3475 3122 3366 
z
" transform="scale(0.015625)"/>
       <path id="DejaVuSans-66" d="M 2375 4863 
L 2375 4384 
L 1825 4384 
Q 1516 4384 1395 4259 
Q 1275 4134 1275 3809 
L 1275 3500 
L 2222 3500 
L 2222 3053 
L 1275 3053 
L 1275 0 
L 697 0 
L 697 3053 
L 147 3053 
L 147 3500 
L 697 3500 
L 697 3744 
Q 697 4328 969 4595 
Q 1241 4863 1831 4863 
L 2375 4863 
z
" transform="scale(0.015625)"/>
      </defs>
      <use xlink:href="#DejaVuSans-4d"/>
      <use xlink:href="#DejaVuSans-69" x="86.279297"/>
      <use xlink:href="#DejaVuSans-73" x="114.0625"/>
      <use xlink:href="#DejaVuSans-63" x="166.162109"/>
      <use xlink:href="#DejaVuSans-6c" x="221.142578"/>
      <use xlink:href="#DejaVuSans-61" x="248.925781"/>
      <use xlink:href="#DejaVuSans-73" x="310.205078"/>
      <use xlink:href="#DejaVuSans-73" x="362.304688"/>
      <use xlink:href="#DejaVuSans-69" x="414.404297"/>
      <use xlink:href="#DejaVuSans-66" x="442.1875"/>
      <use xlink:href="#DejaVuSans-69" x="477.392578"/>
      <use xlink:href="#DejaVuSans-63" x="505.175781"/>
      <use xlink:href="#DejaVuSans-61" x="560.15625"/>
      <use xlink:href="#DejaVuSans-74" x="621.435547"/>
      <use xlink:href="#DejaVuSans-69" x="660.644531"/>
      <use xlink:href="#DejaVuSans-6f" x="688.427734"/>
      <use xlink:href="#DejaVuSans-6e" x="749.609375"/>
      <use xlink:href="#DejaVuSans-20" x="812.988281"/>
      <use xlink:href="#DejaVuSans-72" x="844.775391"/>
      <use xlink:href="#DejaVuSans-61" x="885.888672"/>
      <use xlink:href="#DejaVuSans-74" x="947.167969"/>
      <use xlink:href="#DejaVuSans-65" x="986.376953"/>
     </g>
    </g>
   </g>
   <g id="line2d_30">
    <path d="M 83.759943 180.50983 
L 86.544149 224.643571 
L 89.328355 244.300998 
L 92.11256 255.229875 
L 94.896766 258.775847 
L 97.680972 263.394708 
L 100.465177 268.777312 
L 103.249383 271.304956 
L 106.033589 273.95989 
L 108.817794 275.323727 
L 111.602 277.396758 
L 114.386206 279.760741 
L 117.170412 280.851813 
L 119.954617 282.324754 
L 122.738823 282.997579 
L 125.523029 284.034095 
L 128.307234 285.434301 
L 131.09144 285.907096 
L 133.875646 285.943465 
L 136.659851 286.088943 
L 139.444057 286.725399 
L 142.228263 287.743731 
L 145.012468 287.798284 
L 147.796674 289.216674 
L 150.58088 289.85313 
L 153.365086 289.234857 
L 156.149291 288.525663 
L 158.933497 291.089676 
L 161.717703 290.7078 
L 164.501908 289.834945 
L 167.286114 290.05316 
L 170.07032 291.871609 
L 172.854525 292.398958 
L 175.638731 292.326221 
L 178.422937 293.653689 
L 181.207142 289.634917 
L 183.991348 294.326514 
L 186.775554 294.362883 
L 189.55976 293.035416 
L 192.343965 294.526544 
L 195.128171 295.199369 
L 197.912377 295.381214 
L 200.696582 295.69035 
L 203.480788 295.890378 
L 206.264994 296.017671 
L 209.049199 296.144963 
L 211.833405 296.235884 
L 214.617611 296.363175 
L 217.401816 296.526836 
L 220.186022 296.599575 
L 222.970228 296.854157 
L 225.754434 296.926894 
L 228.538639 297.090554 
L 231.322845 297.217846 
L 234.107051 297.308769 
L 236.891256 297.599721 
L 239.675462 297.781566 
L 242.459668 297.96341 
L 245.243873 298.108885 
L 248.028079 298.254361 
L 250.812285 298.345285 
L 253.59649 298.636237 
L 256.380696 298.654421 
L 259.164902 298.836265 
L 261.949108 299.072664 
L 264.733313 301.036589 
L 267.517519 301.200247 
L 270.301725 301.400277 
L 273.08593 301.636677 
L 275.870136 301.782153 
L 278.654342 301.873074 
L 281.438547 302.05492 
L 284.222753 302.109472 
L 287.006959 302.309502 
L 289.791164 302.509532 
L 292.57537 302.491347 
L 295.359576 302.691375 
L 298.143782 302.800484 
L 300.927987 303.000512 
L 303.712193 303.091435 
L 306.496399 303.182357 
L 309.280604 303.346018 
L 312.06481 303.309648 
L 314.849016 303.473309 
L 317.633221 303.509678 
L 320.417427 303.709706 
L 323.201633 303.873368 
L 325.985838 303.818813 
L 328.770044 303.927921 
L 331.55425 304.037028 
L 334.338456 303.891551 
L 337.122661 303.891551 
L 339.906867 303.946106 
L 342.691073 304.091581 
L 345.475278 304.055212 
L 348.259484 304.200688 
L 351.04369 304.32798 
L 353.827895 304.473456 
L 356.612101 304.491639 
L 359.396307 304.546194 
" clip-path="url(#p7187a714e1)" style="fill: none; stroke: #1f77b4; stroke-width: 1.5; stroke-linecap: square"/>
   </g>
   <g id="line2d_31">
    <path d="M 83.759943 182.057889 
L 86.544149 226.645478 
L 89.328355 243.738602 
L 92.11256 253.558048 
L 94.896766 257.049413 
L 97.680972 261.049927 
L 100.465177 264.177606 
L 103.249383 266.868863 
L 106.033589 268.396332 
L 108.817794 269.778332 
L 111.602 272.251376 
L 114.386206 273.415164 
L 117.170412 274.288003 
L 119.954617 275.160846 
L 122.738823 274.942633 
L 125.523029 275.888212 
L 128.307234 277.415682 
L 131.09144 278.070312 
L 133.875646 279.16136 
L 136.659851 278.579469 
L 139.444057 278.797678 
L 142.228263 279.452308 
L 145.012468 280.034204 
L 147.796674 279.452308 
L 150.58088 279.670517 
L 153.365086 278.724943 
L 156.149291 277.561155 
L 158.933497 280.54336 
L 161.717703 279.525047 
L 164.501908 280.470621 
L 167.286114 280.034204 
L 170.07032 281.052517 
L 172.854525 280.616095 
L 175.638731 278.143047 
L 178.422937 281.270726 
L 181.207142 280.179677 
L 183.991348 282.361778 
L 186.775554 281.488935 
L 189.55976 281.852617 
L 192.343965 282.725461 
L 195.128171 282.943669 
L 197.912377 283.089143 
L 200.696582 282.725461 
L 203.480788 282.943669 
L 206.264994 283.016404 
L 209.049199 282.943669 
L 211.833405 282.870934 
L 214.617611 283.161878 
L 217.401816 283.161878 
L 220.186022 283.5983 
L 222.970228 283.743774 
L 225.754434 283.671035 
L 228.538639 283.671035 
L 231.322845 283.889248 
L 234.107051 284.034722 
L 236.891256 284.180191 
L 239.675462 284.107457 
L 242.459668 284.180191 
L 245.243873 284.180191 
L 248.028079 284.180191 
L 250.812285 284.325665 
L 253.59649 284.25293 
L 256.380696 284.616613 
L 259.164902 284.543878 
L 261.949108 284.616613 
L 264.733313 285.053035 
L 267.517519 284.689348 
L 270.301725 284.980296 
L 273.08593 285.198505 
L 275.870136 285.12577 
L 278.654342 285.343979 
L 281.438547 285.343979 
L 284.222753 285.925874 
L 287.006959 285.998609 
L 289.791164 285.634926 
L 292.57537 285.634926 
L 295.359576 285.416718 
L 298.143782 285.7804 
L 300.927987 285.853135 
L 303.712193 285.853135 
L 306.496399 285.634926 
L 309.280604 285.925874 
L 312.06481 285.998609 
L 314.849016 286.071348 
L 317.633221 285.925874 
L 320.417427 285.998609 
L 323.201633 286.071348 
L 325.985838 286.216822 
L 328.770044 285.925874 
L 331.55425 286.144083 
L 334.338456 286.289557 
L 337.122661 285.998609 
L 339.906867 285.998609 
L 342.691073 286.216822 
L 345.475278 286.144083 
L 348.259484 286.216822 
L 351.04369 286.216822 
L 353.827895 286.216822 
L 356.612101 286.216822 
L 359.396307 286.65324 
" clip-path="url(#p7187a714e1)" style="fill: none; stroke: #ff7f0e; stroke-width: 1.5; stroke-linecap: square"/>
   </g>
   <g id="patch_8">
    <path d="M 69.978125 310.748012 
L 69.978125 174.308012 
" style="fill: none; stroke: #000000; stroke-width: 0.8; stroke-linejoin: miter; stroke-linecap: square"/>
   </g>
   <g id="patch_9">
    <path d="M 373.178125 310.748012 
L 373.178125 174.308012 
" style="fill: none; stroke: #000000; stroke-width: 0.8; stroke-linejoin: miter; stroke-linecap: square"/>
   </g>
   <g id="patch_10">
    <path d="M 69.978125 310.748012 
L 373.178125 310.748012 
" style="fill: none; stroke: #000000; stroke-width: 0.8; stroke-linejoin: miter; stroke-linecap: square"/>
   </g>
   <g id="patch_11">
    <path d="M 69.978125 174.308012 
L 373.178125 174.308012 
" style="fill: none; stroke: #000000; stroke-width: 0.8; stroke-linejoin: miter; stroke-linecap: square"/>
   </g>
   <g id="legend_1">
    <g id="patch_12">
     <path d="M 267.34375 211.664262 
L 366.178125 211.664262 
Q 368.178125 211.664262 368.178125 209.664262 
L 368.178125 181.308012 
Q 368.178125 179.308012 366.178125 179.308012 
L 267.34375 179.308012 
Q 265.34375 179.308012 265.34375 181.308012 
L 265.34375 209.664262 
Q 265.34375 211.664262 267.34375 211.664262 
z
" style="fill: #ffffff; opacity: 0.8; stroke: #cccccc; stroke-linejoin: miter"/>
    </g>
    <g id="line2d_32">
     <path d="M 269.34375 187.406449 
L 279.34375 187.406449 
L 289.34375 187.406449 
" style="fill: none; stroke: #1f77b4; stroke-width: 1.5; stroke-linecap: square"/>
    </g>
    <g id="text_18">
     <!-- Training error -->
     <g transform="translate(297.34375 190.906449) scale(0.1 -0.1)">
      <defs>
       <path id="DejaVuSans-54" d="M -19 4666 
L 3928 4666 
L 3928 4134 
L 2272 4134 
L 2272 0 
L 1638 0 
L 1638 4134 
L -19 4134 
L -19 4666 
z
" transform="scale(0.015625)"/>
      </defs>
      <use xlink:href="#DejaVuSans-54"/>
      <use xlink:href="#DejaVuSans-72" x="46.333984"/>
      <use xlink:href="#DejaVuSans-61" x="87.447266"/>
      <use xlink:href="#DejaVuSans-69" x="148.726562"/>
      <use xlink:href="#DejaVuSans-6e" x="176.509766"/>
      <use xlink:href="#DejaVuSans-69" x="239.888672"/>
      <use xlink:href="#DejaVuSans-6e" x="267.671875"/>
      <use xlink:href="#DejaVuSans-67" x="331.050781"/>
      <use xlink:href="#DejaVuSans-20" x="394.527344"/>
      <use xlink:href="#DejaVuSans-65" x="426.314453"/>
      <use xlink:href="#DejaVuSans-72" x="487.837891"/>
      <use xlink:href="#DejaVuSans-72" x="527.201172"/>
      <use xlink:href="#DejaVuSans-6f" x="566.064453"/>
      <use xlink:href="#DejaVuSans-72" x="627.246094"/>
     </g>
    </g>
    <g id="line2d_33">
     <path d="M 269.34375 202.084574 
L 279.34375 202.084574 
L 289.34375 202.084574 
" style="fill: none; stroke: #ff7f0e; stroke-width: 1.5; stroke-linecap: square"/>
    </g>
    <g id="text_19">
     <!-- Test error -->
     <g transform="translate(297.34375 205.584574) scale(0.1 -0.1)">
      <use xlink:href="#DejaVuSans-54"/>
      <use xlink:href="#DejaVuSans-65" x="44.083984"/>
      <use xlink:href="#DejaVuSans-73" x="105.607422"/>
      <use xlink:href="#DejaVuSans-74" x="157.707031"/>
      <use xlink:href="#DejaVuSans-20" x="196.916016"/>
      <use xlink:href="#DejaVuSans-65" x="228.703125"/>
      <use xlink:href="#DejaVuSans-72" x="290.226562"/>
      <use xlink:href="#DejaVuSans-72" x="329.589844"/>
      <use xlink:href="#DejaVuSans-6f" x="368.453125"/>
      <use xlink:href="#DejaVuSans-72" x="429.634766"/>
     </g>
    </g>
   </g>
  </g>
 </g>
 <defs>
  <clipPath id="p9c73d197be">
   <rect x="69.978125" y="7.788012" width="303.2" height="136.44"/>
  </clipPath>
  <clipPath id="p7187a714e1">
   <rect x="69.978125" y="174.308012" width="303.2" height="136.44"/>
  </clipPath>
 </defs>
</svg>